<svg xmlns="http://www.w3.org/2000/svg" id="ロゴ_黒バック" width="177.011" height="41.538" viewBox="0 0 177.011 41.538">
    <defs>
        <linearGradient id="linear-gradient" x1=".5" x2=".5" y1="1" gradientUnits="objectBoundingBox">
            <stop offset="0" stop-color="#c62c2c"/>
            <stop offset="1" stop-color="#ff2e2e"/>
        </linearGradient>
        <style>
            .cls-2{fill:#fff}
        </style>
    </defs>
    <g id="グループ_5114">
        <path id="パス_2494" fill="url(#linear-gradient)" d="M184.113 418.335H214.6v7.939h-9.9v32.216H194v-32.216h-9.9zm59.052 0l-7.344 30.3h-.115l-7.286-30.3h-11.391l11.831 40.155h13.232l12.061-40.155z" transform="translate(-77.143 -417.645)"/>
        <g id="グループ_5090">
            <path id="パス_2495" d="M142.085 417.794c-13.232 0-20.135 7.881-20.135 20.769 0 12.772 7.018 20.769 20.135 20.769s20.135-8 20.135-20.769c0-12.888-6.903-20.769-20.135-20.769zm0 33.6c-6.5 0-9.089-6.214-9.089-12.83 0-6.961 2.588-12.828 9.089-12.828s9.089 5.868 9.089 12.828c.001 6.615-2.588 12.828-9.089 12.828z" class="cls-2" transform="translate(-94.36 -417.794)"/>
            <path id="パス_2496" d="M181.274 438.011v-.111c4.487-1.5 7.077-4.315 7.077-9.378 0-6.9-5.58-10.183-13.06-10.183h-18.466v40.151h16.915c7.191 0 15.648-2.012 15.648-11.62-.001-4.891-2.763-7.77-8.114-8.859zm-13.749-12.081h3.107c3.567 0 7.018.345 7.018 4.028 0 3.394-3.624 4.256-7.133 4.256h-2.992zm3.164 24.968h-3.164v-9.435h3.275c3.681 0 7.881.4 7.881 4.775.005 4.084-4.081 4.662-7.992 4.662z" class="cls-2" transform="translate(-84.701 -417.644)"/>
            <path id="パス_2497" d="M112.971 439.832c0 5.292-1.439 9.78-6.9 9.78a13.2 13.2 0 0 1-5.722-.849v9.678a21.474 21.474 0 0 0 5.722.741c10.471 0 17.6-6.579 17.6-17.567v-23.279h-10.7z" class="cls-2" transform="translate(-100.344 -417.644)"/>
        </g>
    </g>
</svg>
